<svg id="Layer_1" data-name="Layer 1" xmlns="http://www.w3.org/2000/svg" viewBox="0 0 849.301 452.884">
  <defs>
    <style>
      .cls-1 {
        fill: #fff;
      }

      .cls-2 {
        fill: #095f65;
      }

      .cls-3 {
        fill: #997841;
      }

      .cls-4 {
        fill: #755728;
      }

      .cls-5 {
        fill: #a22428;
      }

      .cls-6 {
        fill: #171615;
      }

      .cls-7 {
        fill: #fceec6;
      }

      .cls-8 {
        fill: #684926;
      }

      .cls-9 {
        fill: #085a63;
      }

      .cls-10 {
        fill: #eed89f;
      }

      .cls-11 {
        fill: #9b7941;
      }

      .cls-12 {
        fill: #896833;
      }

      .cls-13 {
        fill: #96743c;
      }

      .cls-14 {
        fill: #8e6d37;
      }

      .cls-15 {
        fill: #927039;
      }

      .cls-16 {
        fill: #846330;
      }

      .cls-17 {
        fill: #bc9a5e;
      }

      .cls-18 {
        fill: #795a2a;
      }

      .cls-19 {
        fill: #a5834a;
      }

      .cls-20 {
        fill: #7c5d2c;
      }

      .cls-21 {
        fill: #7b5c2b;
      }

      .cls-22 {
        fill: #e1c386;
      }

      .cls-23 {
        fill: #b28f54;
      }

      .cls-24 {
        fill: #815f34;
      }

      .cls-25 {
        fill: #ad8b51;
      }

      .cls-26 {
        fill: #a9844f;
      }

      .cls-27 {
        fill: #a9874d;
      }

      .cls-28 {
        fill: #b59358;
      }

      .cls-29 {
        fill: #9f7d44;
      }

      .cls-30 {
        fill: #f5e1b0;
      }

      .cls-31 {
        fill: #82612f;
      }

      .cls-32 {
        fill: #80602e;
      }

      .cls-33 {
        fill: #8a6834;
      }

      .cls-34 {
        fill: #b8965b;
      }

      .cls-35 {
        fill: #7a5b2b;
      }

      .cls-36 {
        fill: #a28047;
      }

      .cls-37 {
        fill: #906e37;
      }

      .cls-38 {
        fill: #c29f63;
      }

      .cls-39 {
        fill: #bf9d61;
      }

      .cls-40 {
        fill: #f3dfab;
      }

      .cls-41 {
        fill: #f8e8bb;
      }

      .cls-42 {
        fill: #f2dca7;
      }

      .cls-43 {
        fill: #e9ce91;
      }

      .cls-44 {
        fill: #e8d093;
      }

      .cls-45 {
        fill: #c8a96f;
      }

      .cls-46 {
        fill: #cbab6d;
      }

      .cls-47 {
        fill: #9e7b42;
      }

      .cls-48 {
        fill: #5d431f;
      }

      .cls-49 {
        fill: #d9ba7d;
      }

      .cls-50 {
        fill: #7e5f2f;
      }

      .cls-51 {
        fill: #ead39a;
      }

      .cls-52 {
        fill: #bf9e62;
      }

      .cls-53 {
        fill: #cbaa6e;
      }

      .cls-54 {
        fill: #c5a567;
      }

      .cls-55 {
        fill: #c6a568;
      }

      .cls-56 {
        fill: #d4b576;
      }

      .cls-57 {
        fill: #96733b;
      }

      .cls-58 {
        fill: #9a773e;
      }

      .cls-59 {
        fill: #e1c486;
      }

      .cls-60 {
        fill: #a38046;
      }

      .cls-61 {
        fill: #e6cd92;
      }

      .cls-62 {
        fill: #a7844a;
      }

      .cls-63 {
        fill: #eed69f;
      }

      .cls-64 {
        fill: #ead198;
      }

      .cls-65 {
        fill: #ab894e;
      }

      .cls-66 {
        fill: #b08f53;
      }

      .cls-67 {
        fill: #856431;
      }

      .cls-68 {
        fill: #b59357;
      }

      .cls-69 {
        fill: #ba995c;
      }

      .cls-70 {
        fill: #ceaf6f;
      }

      .cls-71 {
        fill: #d8bb79;
      }

      .cls-72 {
        fill: #e3c885;
      }

      .cls-73 {
        fill: #d3b477;
      }

      .cls-74 {
        fill: #9d7b43;
      }

      .cls-75 {
        fill: #a27f46;
      }

      .cls-76 {
        fill: #cfaf72;
      }

      .cls-77 {
        fill: #76582a;
      }

      .cls-78 {
        fill: #dabb7c;
      }

      .cls-79 {
        fill: #95733e;
      }

      .cls-80 {
        fill: #a27f47;
      }

      .cls-81 {
        fill: #e5cc93;
      }

      .cls-82 {
        fill: #96743d;
      }

      .cls-83 {
        fill: #dabe84;
      }

      .cls-84 {
        fill: #ccad74;
      }

      .cls-85 {
        fill: #cfb176;
      }

      .cls-86 {
        fill: #6d5127;
      }

      .cls-87 {
        fill: #7f5f2d;
      }

      .cls-88 {
        fill: #a6844a;
      }

      .cls-89 {
        fill: #c5a369;
      }

      .cls-90 {
        fill: #d0b178;
      }

      .cls-91 {
        fill: #8a6934;
      }

      .cls-92 {
        fill: #c4a266;
      }

      .cls-93 {
        fill: #ac874d;
      }

      .cls-94 {
        fill: #b8965c;
      }

      .cls-95 {
        fill: #654922;
      }

      .cls-96 {
        fill: #75592c;
      }

      .cls-97 {
        fill: #bd995e;
      }

      .cls-98 {
        fill: #b69156;
      }

      .cls-99 {
        fill: #a38047;
      }

      .cls-100 {
        fill: #90703b;
      }

      .cls-101 {
        fill: #896a37;
      }

      .cls-102 {
        fill: #826433;
      }

      .cls-103 {
        fill: #7b5e2f;
      }

      .cls-104 {
        fill: #6a4c26;
      }

      .cls-105 {
        fill: #bd9d64;
      }

      .cls-106 {
        fill: #b7925a;
      }

      .cls-107 {
        fill: #715129;
      }

      .cls-108 {
        fill: #866531;
      }

      .cls-109 {
        fill: #755729;
      }

      .cls-110 {
        fill: #765729;
      }

      .cls-111 {
        fill: #ad8a51;
      }

      .cls-112 {
        fill: #171716;
      }

      .cls-113 {
        fill: #181716;
      }

      .cls-114 {
        fill: #181817;
      }

      .cls-115 {
        fill: #231e1d;
      }
    </style>
  </defs>
  <title>75th anniversary</title>
  <polygon class="cls-1" points="424.651 0 0 452.884 849.301 452.884 424.651 0"/>
  <g>
    <path class="cls-2" d="M546.5,346.18c-.754.01-1.508.029-2.262.029q-69.768,0-139.535,0c-2.3,0-2.316,0-2.032-2.265.169-1.347-.31-3.092.692-3.925.88-.732,2.489-.6,3.781-.823q14.908-2.586,29.817-5.163c10.493-1.825,20.981-3.68,31.475-5.5,10.556-1.827,21.118-3.618,31.675-5.436,4.692-.808,9.385-1.614,14.064-2.488a3.017,3.017,0,0,1,3.092,1.007,158.877,158.877,0,0,0,13.4,11.817c5.21,4.21,10.4,8.441,15.837,12.364Z" transform="translate(127.013 -74.087)"/>
    <path class="cls-3" d="M69.538,346.851q-9.433.01-18.865.022c-.627,0-1.255.04-1.882.061v-.755l.708-.049a18,18,0,0,1,2.169-.1c.983-.05,1.965-.03,2.948-.02q4.492-.1,8.98,0c.541.018,1.084-.033,1.624.023.6.005,1.206,0,1.809.025.376.006.753.017,1.129.037a4.74,4.74,0,0,1,.813.084,1.593,1.593,0,0,1,.492.208.338.338,0,0,1,.134.3Q69.579,346.851,69.538,346.851Z" transform="translate(127.013 -74.087)"/>
    <path class="cls-4" d="M124.246,268.8a20.774,20.774,0,0,1,2.463-2.819c6.217-6.387,12.452-12.756,18.62-19.19q5.214-5.438,10.466-10.839c6.653-6.836,13.244-13.732,19.867-20.6.431-.447.921-.837,1.384-1.253a11.8,11.8,0,0,1,1.536-1.648c.4-.362.755-.969,1.412-.642.566.281.59.914.658,1.473a12.8,12.8,0,0,1,.051,1.5c.049,13.91-.093,27.82.077,41.729a3.375,3.375,0,0,1-.259,1.466q-3.361,5.2-6.718,10.412c-.576.9-1.077,1.843-1.674,2.725-.533.787-.312,1.167.5,1.573,2.071,1.038,4.091,2.176,6.14,3.259a7.236,7.236,0,0,1,1.753,1.068,3.137,3.137,0,0,1,.946,2.55q.031,12.677-.006,25.353a3.475,3.475,0,0,1-.623,2.487c-3.1-.8-6.02-2.122-9.034-3.171-3.6-1.253-7.165-2.616-10.747-3.924-1.315-.48-1.339-.478-1.755.953a172.512,172.512,0,0,0-4.5,19.743c-.484,2.9-.915,5.805-1.359,8.71-.208,1.365-.01,1.653,1.4,1.736,2.814.164,5.632.266,8.448.394,4,.182,8.008.347,12.011.554,1.378.071,1.54.245,1.343,1.57a104.745,104.745,0,0,0-1.08,12.7c-5.077.147-10.156.052-15.233.06q-16.837.026-33.674,0a6.373,6.373,0,0,1-2.054-.114c-.834-1.042-.568-2.282-.569-3.449q-.025-34.864.013-69.729C124.047,271.9,123.526,270.313,124.246,268.8Z" transform="translate(127.013 -74.087)"/>
    <path class="cls-2" d="M297.129,269.949a57.329,57.329,0,0,0-13.631,1.225,72.143,72.143,0,0,0-35.212,17.674,78.463,78.463,0,0,0-25.244,50.685,46.018,46.018,0,0,0-.33,5.436c.034,1.038-.378,1.268-1.316,1.257-3.4-.039-6.791-.015-10.187-.015q-8.583,0-17.167,0c-1.529,0-1.559-.02-1.548-1.528a104.76,104.76,0,0,1,1.685-17.565,112.667,112.667,0,0,1,8.155-26.536,110.959,110.959,0,0,1,19.558-29.749,104.621,104.621,0,0,1,26.485-20.915A98.8,98.8,0,0,1,280.918,238.6a82.432,82.432,0,0,1,14.222-1.213c2.56.035,2.258-.178,2.26,2.186q.013,13.96.006,27.92c0,.691.029,1.382.044,2.072C297.593,269.908,297.428,269.985,297.129,269.949Z" transform="translate(127.013 -74.087)"/>
    <path class="cls-5" d="M297.129,269.949l.321-.379a72.158,72.158,0,0,1,39.879,12.093A74.875,74.875,0,0,1,361.82,308.47a78.614,78.614,0,0,1,8.735,26.034,61.956,61.956,0,0,1,.823,11.041c-.021.857-.215,1.323-1.157,1.237-.436-.04-.879-.005-1.319-.005q-21.957,0-43.915,0c-.753,0-1.506.034-2.259.052-1.091-.478-.956-1.567-1.1-2.432a26.482,26.482,0,0,0-6.385-13.627,22.707,22.707,0,0,0-16.119-7.886c-1.385-.082-2.884.5-4.139-.571.61-.448,1.373,0,2.141-.423Z" transform="translate(127.013 -74.087)"/>
    <path class="cls-2" d="M298.482,88.405a23.587,23.587,0,0,1,3.439,4.038c3.705,5.066,7.339,10.184,11.037,15.255a58.83,58.83,0,0,0,6.029,7.215,2.269,2.269,0,0,1,.663,2.044c-.6,5.347-1.039,10.709-1.511,16.069-.516,5.855-1.165,11.7-1.729,17.548-.324,3.364-.58,6.734-.892,10.1-.572,6.166-1.172,12.329-1.744,18.494-.3,3.241-.556,6.486-.849,9.728-.484,5.358-.986,10.714-1.474,16.071q-.995,10.937-1.979,21.874c-.248,2.742-.505,5.483-.751,8.224-.146,1.623-.209,1.706-1.751,1.713q-3.867.018-7.734,0c-1.44-.007-1.461-.023-1.465-1.422q-.018-5.753,0-11.506c.039-20.809-.125-41.621.188-62.426.241-16.026-.025-32.05.213-48.072.115-7.732.031-15.462.1-23.193A3.5,3.5,0,0,1,298.482,88.405Z" transform="translate(127.013 -74.087)"/>
    <path class="cls-6" d="M294.988,322.313c2.364.268,4.748-.085,7.119.416a24.367,24.367,0,0,1,17,12.74,28.8,28.8,0,0,1,3.236,10.321,2.009,2.009,0,0,0,.388,1.04,25.87,25.87,0,0,1-3.752,14.335c-4.788,7.5-11.557,11.561-20.552,11.833a24.627,24.627,0,0,1-25.232-21.968,25.667,25.667,0,0,1,5.6-19.84A23.578,23.578,0,0,1,294.988,322.313Z" transform="translate(127.013 -74.087)"/>
    <path class="cls-2" d="M335.357,134.7a16.4,16.4,0,0,1,3.183,3.321c2.717,3.286,5.368,6.625,8.083,9.912a33.985,33.985,0,0,0,3.061,3.318,2.472,2.472,0,0,1,.8,2.815c-1.212,4.41-2.315,8.85-3.45,13.281q-5.227,20.4-10.449,40.792-4.111,16.022-8.245,32.037c-.031.121-.072.241-.108.361-.348,1.168-.346,1.161-1.493.8-1.914-.6-3.824-1.212-5.749-1.774a26.71,26.71,0,0,0-2.749-.613c-.811-.146-1.147-.39-.964-1.372,1.071-5.722,2.053-11.461,3.054-17.2,1.173-6.721,2.324-13.445,3.5-20.165,1.591-9.061,3.214-18.117,4.8-27.179q2.573-14.706,5.107-29.419C334.246,140.742,334.784,137.865,335.357,134.7Z" transform="translate(127.013 -74.087)"/>
    <path class="cls-2" d="M499.739,304.643,401.79,331.614c-.315-2.2-.637-4.172-.86-6.153a20.036,20.036,0,0,0-.51-2.58c-.323-1.307-.346-1.31.951-1.8q18.281-6.957,36.564-13.909,19.337-7.358,38.671-14.722c1.875-.714,3.8-1.326,5.613-2.166a2.122,2.122,0,0,1,2.664.538c1.644,1.546,3.316,3.063,4.968,4.6C493.063,298.409,496.268,301.4,499.739,304.643Z" transform="translate(127.013 -74.087)"/>
    <path class="cls-2" d="M364.083,167.368c.387-.065.523.049.63.207,2.581,3.833,5.951,6.956,9.185,10.2,1.154,1.157,2.313,2.309,3.466,3.468,1.122,1.128,1.147,1.143.442,2.683q-2.621,5.732-5.285,11.445-4.513,9.727-9.035,19.45-5.23,11.261-10.458,22.523c-1.771,3.81-3.583,7.6-5.306,11.434-.353.785-.667.917-1.4.547-1.51-.765-3.043-1.482-4.575-2.2-1.362-.639-2.706-1.332-4.113-1.853-.964-.356-1.077-.843-.762-1.713,1.408-3.89,2.781-7.793,4.171-11.69q4.642-13.021,9.288-26.041,6.226-17.446,12.455-34.892C363.227,169.717,363.673,168.5,364.083,167.368Z" transform="translate(127.013 -74.087)"/>
    <path class="cls-7" d="M269.156,223.153c-2.841.88-5.661,1.835-8.531,2.605-1.211.325-2.309.943-3.542,1.166a5.184,5.184,0,0,1-.181-2.231q-.01-45.681-.01-91.362a9.427,9.427,0,0,1,.179-2.244,70.247,70.247,0,0,1,5.606-5.752c1.8-1.729,3.218-3.805,5.076-5.474a6.082,6.082,0,0,1,1.4-1.221,2.835,2.835,0,0,1,.561,2.3q.01,49.949,0,99.9A3.031,3.031,0,0,1,269.156,223.153Z" transform="translate(127.013 -74.087)"/>
    <path class="cls-2" d="M470.281,277.136c-2.715,1.325-5.237,2.569-7.772,3.789-4.352,2.094-8.717,4.163-13.068,6.26q-18.9,9.111-37.8,18.234c-4.125,1.988-8.266,3.943-12.4,5.921-1.543.739-1.557.755-2.062-.765-.887-2.674-1.491-5.447-2.8-7.97-.387-.744.272-.828.658-1.063q4.421-2.7,8.852-5.38,25.645-15.444,51.3-30.87c2.265-1.361,1.625-1.574,3.669.476,1.6,1.6,3.136,3.258,4.715,4.876q1.58,1.62,3.2,3.2C467.858,274.89,468.969,275.906,470.281,277.136Z" transform="translate(127.013 -74.087)"/>
    <path class="cls-2" d="M355.289,255.1,389.3,196a.7.7,0,0,1,.765.215q5.184,5.081,10.364,10.165c1.082,1.067,1.057,1.092.192,2.346q-11.5,16.671-22.988,33.343-5.933,8.608-11.863,17.218c-.32.465-.684.9-.981,1.38-.341.551-.66.6-1.206.211C360.872,258.956,358.133,257.072,355.289,255.1Z" transform="translate(127.013 -74.087)"/>
    <path class="cls-2" d="M433.554,240.955a45.594,45.594,0,0,1,4.756,4.866,84.846,84.846,0,0,0,6.424,6.6c.846.721.854.842-.068,1.515q-5.167,3.773-10.371,7.5-21.014,15.1-42.034,30.189c-2.218,1.593-2.229,1.587-3.614-.716-1.067-1.773-2.11-3.56-3.185-5.328-.724-1.19-.767-1.21.266-2.146q3.621-3.281,7.289-6.511,7.951-7.038,15.912-14.064,9.922-8.8,19.823-17.625C430.339,243.82,431.924,242.406,433.554,240.955Z" transform="translate(127.013 -74.087)"/>
    <path class="cls-2" d="M371.1,268.579c4.053-4.875,7.939-9.55,11.826-14.222l28.485-34.239c.04-.048.067-.107.108-.154.955-1.126.968-1.139,1.987-.131,1.831,1.812,3.67,3.617,5.46,5.469,1.523,1.576,2.983,3.213,4.314,4.653L377.6,275.636A92.5,92.5,0,0,0,371.1,268.579Z" transform="translate(127.013 -74.087)"/>
    <path class="cls-8" d="M278.579,108.8a90.429,90.429,0,0,1,6.882-7.126c0,.948,0,1.548,0,2.148q0,45.356,0,90.713c0,2.344.187,2.053-2.158,2.1-1.568.03-3.136.12-4.7.183a3.162,3.162,0,0,1-.614-2.487q-.025-41.4-.012-82.806A5.12,5.12,0,0,1,278.579,108.8Z" transform="translate(127.013 -74.087)"/>
    <path class="cls-9" d="M199.663,408.795q0-10.47,0-20.939c0-1.627.017-1.641,1.638-1.642q10.847-.008,21.694,0c1.773,0,1.7-.16,1.7,1.775,0,.692-.043,1.387.009,2.074.065.844-.305,1.072-1.1,1.062-2.766-.035-5.533-.013-8.3-.013-3.081,0-6.162-.012-9.243.006-1.324.008-1.354.035-1.359,1.365q-.024,5.753,0,11.507c0,1.434.025,1.46,1.443,1.463q8.206.017,16.412,0c.44,0,.881.014,1.32,0,.537-.016.826.208.811.766a1.656,1.656,0,0,0,.006.188c.369,4.2.367,4.288-3.824,4.169-3.257-.092-6.512-.3-9.772-.374-1.9-.044-3.727.555-5.622.418-.714-.051-.781.453-.779,1,.008,1.572,0,3.144,0,4.716,0,2.767-.008,5.533,0,8.3.006,1.537.02,1.557,1.537,1.559,5.6.009,11.193,0,16.789.008,2.2,0,2.037-.307,2.046,1.988.013,3.16.01,3.16-3.166,3.16q-10.187,0-20.373,0c-1.857,0-1.867-.008-1.868-1.815Q199.658,419.17,199.663,408.795Z" transform="translate(127.013 -74.087)"/>
    <path class="cls-10" d="M124.629,346.591c.562.029,1.123.083,1.685.083q24.625,0,49.249,0c-.528.522-1.193.29-1.793.29q-40.177-.019-80.353-.1c-2.5-.007-5.007-.438-7.513-.259-4.765.34-9.535.316-14.3.341-.688,0-1.376-.064-2.063-.1a1.074,1.074,0,0,1,.055-.231.814.814,0,0,1,.378-.345,2.641,2.641,0,0,1,.771-.141c.26-.02.52-.023.781-.023.347-.008.695-.007,1.042-.011.264-.011.527-.009.79-.006.356,0,.711,0,1.067,0,.272-.01.544-.008.816-.006s.557-.009.835-.009c.383-.013.766-.01,1.15-.015.5-.024,1-.011,1.5-.021.524-.061,1.053,0,1.574-.1,1.047-.7.707-1.793.71-2.726q.05-13.631.015-27.261a12.382,12.382,0,0,1,.2-2.615,17.224,17.224,0,0,1,2.31-2.46c2.436-2.521,4.949-4.968,7.253-7.616a4.64,4.64,0,0,1,1.4-1.243c1.21.907.964,2.248.967,3.469q.038,18.48.016,36.96c0,.691-.021,1.383.048,2.073.066.659.245,1.24.981,1.439.538.079,1.084.013,1.623.076.522.007,1.045-.016,1.566.013.409,0,.819-.016,1.228,0,.506-.016,1.013-.008,1.519,0,.605-.015,1.21-.011,1.815,0,.5-.006,1-.014,1.5,0,.494,0,.988-.006,1.481.007.389,0,.778-.008,1.167.005.384,0,.769,0,1.153,0s.763,0,1.145,0,.762,0,1.143,0,.764-.006,1.146,0c.384-.012.769-.007,1.153,0,.485-.008.969,0,1.454,0q.589-.015,1.177,0c.4-.021.795,0,1.192-.005.6-.016,1.208-.013,1.813-.007q.92-.02,1.839,0c.416-.015.831-.011,1.247,0,.637-.034,1.274-.008,1.912-.006A2.731,2.731,0,0,1,124.629,346.591Z" transform="translate(127.013 -74.087)"/>
    <path class="cls-9" d="M164.121,391.057a35.173,35.173,0,0,1-5.732-.389,13.835,13.835,0,0,0-6.932,1.376,6.16,6.16,0,0,0-.859,10.593,58.744,58.744,0,0,0,7.034,4.373,15.928,15.928,0,0,1,6.175,5.91c3.063,4.963.982,11.956-2.97,15.134a16.615,16.615,0,0,1-10.208,3.776c-2.449.072-4.9.039-7.353-.034-1.3-.039-1.491-.293-1.588-1.563-.048-.625,0-1.258-.024-1.886-.081-1.762-.088-1.787,1.591-1.751.873.019,1.744.156,2.617.224a25.687,25.687,0,0,0,9.278-1.221,5.776,5.776,0,0,0,4.386-4.693,6.994,6.994,0,0,0-2.351-6.96,30.293,30.293,0,0,0-5.426-3.36,26.887,26.887,0,0,1-6.667-4.855,6.065,6.065,0,0,1-1.557-2.335c-1.447-4.459-1.493-8.82,1.553-12.686,2.706-3.435,6.529-4.773,10.754-4.989,2.189-.112,4.395.124,6.591.087,1.039-.017,1.294.524,1.37,1.341C163.919,388.394,164.008,389.641,164.121,391.057Z" transform="translate(127.013 -74.087)"/>
    <path class="cls-9" d="M380.758,391.187c-1.948-.181-3.86-.433-5.779-.518a11.8,11.8,0,0,0-8.1,2.437,5.2,5.2,0,0,0-1.127,7.338c1.721,2.717,4.462,4.161,7.114,5.673a35.885,35.885,0,0,1,5.058,3.236c6.045,4.939,5.638,16.209-2.513,20.3a17.628,17.628,0,0,1-6.032,1.974,64.364,64.364,0,0,1-9.775.125c-.8-.035-1.134-.354-1.087-1.146.033-.563-.008-1.131.007-1.7.066-2.549-.539-2.567,2.453-2.259a33.407,33.407,0,0,0,10.614-.846c3.718-.8,6.859-5.716,3.98-9.938a11.313,11.313,0,0,0-3.064-2.991c-2.744-1.873-5.8-3.231-8.44-5.292-3.717-2.9-5.04-6.655-4.534-11.258.735-6.682,7.326-10.343,12.784-10.605,2.439-.117,4.893.088,7.34.1a.946.946,0,0,1,1.085,1C380.79,388.244,380.758,389.671,380.758,391.187Z" transform="translate(127.013 -74.087)"/>
    <path class="cls-9" d="M315.506,386.211q5.376,0,10.751,0c1.694,0,1.695.014,1.705,1.773a17.7,17.7,0,0,0,.013,1.885c.119,1.042-.372,1.26-1.306,1.254-5.03-.032-10.06-.015-15.09-.015-.566,0-1.132-.01-1.7,0-1.372.029-1.406.033-1.411,1.316q-.024,6.413,0,12.826c0,1.3.033,1.325,1.387,1.328,5.156.012,10.311,0,15.467.005.44,0,.88.008,1.32.009.47,0,.674.263.675.7,0,1.257.009,2.515-.008,3.772-.006.452-.288.661-.733.662s-.88.007-1.32.007c-4.778,0-9.557-.01-14.335,0-2.867.009-2.44-.3-2.452,2.548-.022,5.156,0,10.311-.01,15.467,0,1.575-.022,1.579-1.513,1.6-.691.01-1.383.008-2.075,0-1.705-.018-1.671-.021-1.709-1.812-.022-1.074.289-2.1.286-3.175q-.048-17.542-.005-35.084c0-1.324-.338-2.6-.3-3.933.028-.931.358-1.168,1.229-1.16C308.086,386.232,311.8,386.211,315.506,386.211Z" transform="translate(127.013 -74.087)"/>
    <path class="cls-11" d="M215.928,252.135a27.8,27.8,0,0,1-3.768,3.771c-.859-1.034-.575-2.278-.576-3.441q-.026-35.148-.018-70.3a7.832,7.832,0,0,0-.4-3.522,50.9,50.9,0,0,1,4.762-4.923c.912-.368,1.09.316,1.246.923a9.735,9.735,0,0,1,.143,2.44q.008,20.924.006,41.849a5.561,5.561,0,0,1-.269,2.228l-2.971,2.135c.366,1.207,1.523,1.928,1.927,3.088a8.352,8.352,0,0,1,.567,3.307c-.019,6.459-.006,12.918-.012,19.377A4.58,4.58,0,0,1,215.928,252.135Z" transform="translate(127.013 -74.087)"/>
    <path class="cls-12" d="M195.169,195.233a59.37,59.37,0,0,1,5.054-5.267c.605-.485,1.131-.574,1.42.317a7.164,7.164,0,0,1,.2,2.24q.007,30.308-.027,60.616c0,1,.517,2.338-1,2.878a63.647,63.647,0,0,1-5.665-5.665,31.733,31.733,0,0,0,.2-3.942q0-23.617,0-47.234A35.962,35.962,0,0,0,195.169,195.233Z" transform="translate(127.013 -74.087)"/>
    <path class="cls-13" d="M211.165,178.647c.433-.015,1.069-.434,1.015.517-.014.251,0,.5,0,.754q0,37.806-.008,75.611c0,.126-.007.251-.01.377a25.747,25.747,0,0,1-3.351,3.513,2.419,2.419,0,0,1-.973-2.135c-.073-.878-.043-1.76-.044-2.64q0-35-.007-70a12.544,12.544,0,0,1,.216-2.623A15.422,15.422,0,0,1,211.165,178.647Z" transform="translate(127.013 -74.087)"/>
    <path class="cls-14" d="M200.82,256.018c.695-.6.4-1.407.4-2.122q.026-20.417.013-40.834,0-10.632,0-21.264c0-.439-.018-.879,0-1.317.046-.95-.586-.527-1.017-.515l3.626-3.789a1.542,1.542,0,0,0,.4-.389l-.005,0c.93-.031,1.122.653,1.27,1.345a10.748,10.748,0,0,1,.115,2.252q0,33.222,0,66.443a11.375,11.375,0,0,1-.086,2.066c-.137.745-.271,1.535-1.309,1.524l.011.005a1.163,1.163,0,0,0-.406-.4A18.2,18.2,0,0,1,200.82,256.018Z" transform="translate(127.013 -74.087)"/>
    <path class="cls-15" d="M204.228,259.421A1.274,1.274,0,0,0,205,258.23c0-.44.007-.879.007-1.319q0-34.3-.012-68.605c0-.887.364-1.942-.76-2.514A28.179,28.179,0,0,1,208,182.025c.684.605.39,1.413.391,2.128q.027,19.019.013,38.039,0,17.042-.008,34.084a8.9,8.9,0,0,0,.412,3.143l.007-.013a1.141,1.141,0,0,0-.395.4,2.175,2.175,0,0,1-.163.324c-1.435,1.97-1.517,1.979-3.209.255C204.753,260.089,204.5,259.745,204.228,259.421Z" transform="translate(127.013 -74.087)"/>
    <path class="cls-16" d="M195.169,195.233c.4.072.729.224.754.69.023.439.029.879.03,1.319q0,25.555-.019,51.11c0,.711.475,1.728-.779,2a39.81,39.81,0,0,1-4.51-4.51,10.652,10.652,0,0,1-.183-2.624q.007-19.7,0-39.4a5.438,5.438,0,0,0-.118-1.841c-.656-.269-1.22.51-1.838.073C190.7,199.757,192.8,197.367,195.169,195.233Z" transform="translate(127.013 -74.087)"/>
    <path class="cls-9" d="M260.414,408.827q0-10.26,0-20.52c0-.439.013-.879.006-1.318-.009-.55.256-.784.8-.778,1.193.012,2.386.017,3.578,0,.624-.01.931.229.9.881-.109,2.438.216,4.885-.191,7.32a11.491,11.491,0,0,0-.059,1.878c0,9.982.016,19.964-.024,29.946-.005,1.325.331,2.6.3,3.927-.021.883-.282,1.264-1.2,1.212a21.964,21.964,0,0,0-2.823,0c-.976.07-1.331-.281-1.309-1.274.054-2.384-.07-4.775.036-7.156C260.642,418.239,260.451,413.533,260.414,408.827Z" transform="translate(127.013 -74.087)"/>
    <path class="cls-17" d="M105.359,483.9a18.958,18.958,0,0,0,4.382,1.715,6.269,6.269,0,0,0,5.937-1.548,4.49,4.49,0,0,0-.446-7.038,8.172,8.172,0,0,0-6.458-1.292c-1.394.221-1.429.233-1.436-1.058q-.029-6.034,0-12.068c.006-1.3.043-1.324,1.413-1.332,3.331-.019,6.663.014,9.993-.025.936-.011,1.357.241,1.335,1.264-.063,3.01.187,2.483-2.511,2.52-1.7.023-3.395.03-5.091-.007-.811-.018-1.124.295-1.105,1.1.035,1.508.047,3.018-.005,4.525-.032.906.314,1.176,1.2,1.2a8.7,8.7,0,0,1,7.689,4.3,8.948,8.948,0,0,1-4.355,12.981c-3.376,1.259-6.658.721-9.874-.679a.967.967,0,0,1-.673-1C105.362,486.358,105.359,485.246,105.359,483.9Z" transform="translate(127.013 -74.087)"/>
    <path class="cls-18" d="M180.521,257.978a10.275,10.275,0,0,1-.427-3.327q.026-20.315.006-40.629a4.475,4.475,0,0,0-.208-2.062c-1.32.34-1.734,1.714-2.846,2.138a23.579,23.579,0,0,1,4.283-4.492,5.627,5.627,0,0,0,1.407-1.546l0,.005a1.479,1.479,0,0,0,.377-.4l-.013.013a1.214,1.214,0,0,0,.39-.39l-.006,0c.929-.033,1.121.65,1.272,1.341a9.629,9.629,0,0,1,.114,2.062q.005,19.377.007,38.754a7.27,7.27,0,0,1-.634,3.47A45.413,45.413,0,0,1,180.521,257.978Z" transform="translate(127.013 -74.087)"/>
    <path class="cls-19" d="M225.771,215.636a20.6,20.6,0,0,1-3.408,2.14c-.852-.96-.592-2.142-.594-3.244q-.029-21.108-.01-42.216a23.1,23.1,0,0,0-.3-4.316l3.146-3.332c1.167-.408,1.42.436,1.631,1.242a9.566,9.566,0,0,1,.138,2.436q0,22.017-.006,44.034C226.37,213.493,226.56,214.66,225.771,215.636Z" transform="translate(127.013 -74.087)"/>
    <path class="cls-20" d="M184.24,252.924q.008-21.841.017-43.682c0-.753.1-1.542-.775-1.945a18.113,18.113,0,0,1,3.005-3.01,1.319,1.319,0,0,0,.4-.391l-.013.012a1.1,1.1,0,0,0,.39-.389l-.005,0c1.1.112,1.158,1,1.294,1.788a15.479,15.479,0,0,1,.086,2.631c.011,12.487-.015,24.975.011,37.462a4.7,4.7,0,0,1-.264,2.209A65.735,65.735,0,0,1,184.24,252.924Z" transform="translate(127.013 -74.087)"/>
    <path class="cls-21" d="M124.629,346.591a6.941,6.941,0,0,1-2.263-.008,3.56,3.56,0,0,1-.6-2.505q-.017-35.338-.008-70.676a5.134,5.134,0,0,1,.606-2.721,7.449,7.449,0,0,1,1.887-1.885,22.364,22.364,0,0,1,.391,5.6Q124.63,310.495,124.629,346.591Z" transform="translate(127.013 -74.087)"/>
    <path class="cls-22" d="M248.755,139.757l1.581-1.834c.83.108.837.833,1.011,1.4a10.076,10.076,0,0,1,.262,2.994q0,41.96,0,83.92a4.155,4.155,0,0,1-.574,2.89c-.636.229-1.017-.016-1.284-.614a10.539,10.539,0,0,1-.936-2.723,63.88,63.88,0,0,1-.213-8.057q-.01-37.865-.008-75.729A10.878,10.878,0,0,1,248.755,139.757Z" transform="translate(127.013 -74.087)"/>
    <path class="cls-23" d="M234.818,210.669l-3.016,1.554c-.854-.956-.6-2.137-.6-3.237q-.028-23.334-.014-46.667a16.771,16.771,0,0,0-.3-4.115,31.891,31.891,0,0,1,3.472-3.478c.833.354.938,1.112,1.02,1.869a19.032,19.032,0,0,1,.052,2.068q0,24.277,0,48.553C235.43,208.4,235.589,209.619,234.818,210.669Z" transform="translate(127.013 -74.087)"/>
    <path class="cls-24" d="M278.579,108.8q.007,38.636.015,77.273,0,5.371,0,10.743a4.376,4.376,0,0,1-1.881.255,3.2,3.2,0,0,1-.62-2.484q-.024-40.489-.011-80.978a6.381,6.381,0,0,1,.608-2.918A7.908,7.908,0,0,1,278.579,108.8Z" transform="translate(127.013 -74.087)"/>
    <path class="cls-25" d="M230.891,158.2c.46.083.859.249.884.8.026.563.025,1.128.025,1.692q0,25.765,0,51.531a12.046,12.046,0,0,1-2.981,1.622,2.993,2.993,0,0,1-.641-2.468q-.035-24.308-.021-48.617a13.234,13.234,0,0,1,.224-1.865A12.5,12.5,0,0,1,230.891,158.2Z" transform="translate(127.013 -74.087)"/>
    <path class="cls-26" d="M276.693,110.691q.006,39.8.012,79.591,0,3.395.011,6.79l-.733.1c-.938.373-1.436-.041-1.641-.936a10.02,10.02,0,0,1-.139-2.25q0-38.882-.008-77.764a5.665,5.665,0,0,1,1.02-3.911C275.77,111.825,275.975,111.023,276.693,110.691Z" transform="translate(127.013 -74.087)"/>
    <path class="cls-27" d="M228.383,160.895c.677.608.385,1.414.386,2.13q.026,24.187.015,48.374c0,.815.024,1.631.037,2.446a11.729,11.729,0,0,1-3.049,1.791q0-24.121-.008-48.241c0-.5,0-1.005-.007-1.507a1.118,1.118,0,0,0-1.149-1.219A27.83,27.83,0,0,1,228.383,160.895Z" transform="translate(127.013 -74.087)"/>
    <path class="cls-17" d="M241.628,207.616l-1.906.766c-.855-.958-.595-2.141-.6-3.242q-.028-25.53-.017-51.061a26.156,26.156,0,0,0-.157-4.131,9.017,9.017,0,0,1,2.126-2.293.59.59,0,0,0,.5-.4l-.02-.039c.982.089,1.13.874,1.3,1.605a8.3,8.3,0,0,1,.117,1.877q.008,26.761-.016,53.521C242.957,205.482,243.279,206.963,241.628,207.616Z" transform="translate(127.013 -74.087)"/>
    <path class="cls-28" d="M234.818,210.669q0-26.695,0-53.389a4.3,4.3,0,0,0-.458-2.553,5.357,5.357,0,0,1,1.944-2.135c1.064-.159,1.472.479,1.653,1.375a10.424,10.424,0,0,1,.115,2.069q.005,25.091,0,50.181a4.906,4.906,0,0,1-.569,3.1A10.768,10.768,0,0,1,234.818,210.669Z" transform="translate(127.013 -74.087)"/>
    <path class="cls-29" d="M217.054,221.164a3.873,3.873,0,0,1-.342-2.375q-.01-21.53-.026-43.059c0-.7.494-1.723-.758-2.006a10.21,10.21,0,0,1,2.262-2.262,1.611,1.611,0,0,0,.394-.391l-.013.014a.732.732,0,0,0,.35-.446l-.028,0c1-.278,1.183.43,1.332,1.126a11.533,11.533,0,0,1,.118,2.437q0,20.871,0,41.743a5.669,5.669,0,0,1-.612,3.456A12.79,12.79,0,0,1,217.054,221.164Z" transform="translate(127.013 -74.087)"/>
    <path class="cls-30" d="M256.319,227.274l-1.5.408c-.682-.647-.555-1.5-.555-2.3q-.012-44.692-.016-89.384c0-.761.166-1.49.228-2.236a3.789,3.789,0,0,1,1.47-1.538c.859.107.842.811.92,1.41a13.2,13.2,0,0,1,.029,1.7q0,44.43,0,88.859A4.732,4.732,0,0,1,256.319,227.274Z" transform="translate(127.013 -74.087)"/>
    <path class="cls-31" d="M122.359,270.68q0,37.951.007,75.9a5.354,5.354,0,0,1-1.884-.006,2.949,2.949,0,0,1-.559-2.132c.018-23.574-.042-47.147.031-70.721a1.831,1.831,0,0,1,.164-.72A8.318,8.318,0,0,1,122.359,270.68Z" transform="translate(127.013 -74.087)"/>
    <path class="cls-32" d="M188.382,247.611a7.887,7.887,0,0,1-.357-2.957q.008-19.179,0-38.358c0-1,.136-2.031-.774-2.774a3.117,3.117,0,0,1,1.25-1.468c1.036-.133,1.365-1.251,2.251-1.618.531.277.28.773.28,1.159q.021,21.247,0,42.494c0,.6.187,1.273-.4,1.754l.01.005c-.211-.3-.472-.246-.745-.1A8.042,8.042,0,0,1,188.382,247.611Z" transform="translate(127.013 -74.087)"/>
    <path class="cls-33" d="M120.118,273q.016.178.016.356a21.988,21.988,0,0,0-.222,3.562q.01,33.383,0,66.766c0,.99.193,2.033-.56,2.884a5.876,5.876,0,0,1-1.887-.007,3.485,3.485,0,0,1-.607-2.5q-.018-32.706-.014-65.413a8.22,8.22,0,0,1,.527-2.755l-.016.027c.549-.33.8-.936,1.27-1.344A7.75,7.75,0,0,1,120.118,273Z" transform="translate(127.013 -74.087)"/>
    <path class="cls-34" d="M237.5,209.312c-.014-2.638-.039-5.277-.04-7.915q-.006-23.183,0-46.367c0-1.009.159-2.066-1.158-2.438a10.193,10.193,0,0,1,2.258-2.26,1.614,1.614,0,0,0,.4-.387l-.009,0c.4.078.724.239.744.7.021.5.027,1.005.027,1.508q0,28.112,0,56.223A6.28,6.28,0,0,1,237.5,209.312Z" transform="translate(127.013 -74.087)"/>
    <path class="cls-35" d="M180.835,307.407q.012-14.187.033-28.374a5.779,5.779,0,0,0-.35-2.017,46.187,46.187,0,0,1,6.42,3.405,3.974,3.974,0,0,1,.55,2.506c-.028,3.107.115,6.217-.147,9.32-1.271,3.03-2.749,5.969-3.864,9.069-.694,1.928-1.287,3.883-1.854,5.849C181.469,307.7,181.212,307.7,180.835,307.407Z" transform="translate(127.013 -74.087)"/>
    <path class="cls-36" d="M219.729,219.4q0-23.281-.021-46.562c0-.784.469-1.847-.815-2.2a13.091,13.091,0,0,1,2.57-2.634,1.317,1.317,0,0,1,.9,1.3c0,.377,0,.754,0,1.132q0,23.671,0,47.342A11.566,11.566,0,0,1,219.729,219.4Z" transform="translate(127.013 -74.087)"/>
    <path class="cls-37" d="M117.369,275.894c.032.626.093,1.252.093,1.878q.005,34.4,0,68.792l-1.887-.007a2.867,2.867,0,0,1-.559-2.124c-.017-21.452.029-42.9-.033-64.355a8,8,0,0,1,.536-2.367A6.893,6.893,0,0,1,117.369,275.894Z" transform="translate(127.013 -74.087)"/>
    <path class="cls-38" d="M275.215,112.307a7.914,7.914,0,0,0-.408,2.576q.023,40.12.022,80.241c0,.86-.393,2.024,1.155,2.045a4.69,4.69,0,0,1-2.258.379c-.806-.021-.815-.659-.9-1.2a12.53,12.53,0,0,1-.054-1.884q0-38.478,0-76.956a6.781,6.781,0,0,1,.48-3.134A9.691,9.691,0,0,1,275.215,112.307Z" transform="translate(127.013 -74.087)"/>
    <path class="cls-39" d="M241.628,207.616a3.107,3.107,0,0,0,.753-2.236q-.03-27.878-.009-55.756a2.908,2.908,0,0,0-.815-2.4,15.014,15.014,0,0,1,2.655-2.693c.712.626.6,1.479.6,2.284q.011,31.955-.013,63.911c0,.8.311,1.828-.859,2.224-.509-1.306-1.024-2.61-1.524-3.919A2.675,2.675,0,0,0,241.628,207.616Z" transform="translate(127.013 -74.087)"/>
    <path class="cls-40" d="M269.156,223.153q0-52.256,0-104.513a2.605,2.605,0,0,1,1.125-1.147c.677.654.534,1.512.534,2.311q.02,38.38.018,76.76c.007,7.725.111,15.449.069,23.174-.006,1.055.153,2.159-.608,3.071C270,223.217,269.57,223.152,269.156,223.153Z" transform="translate(127.013 -74.087)"/>
    <path class="cls-41" d="M256.319,227.274q0-46.645,0-93.291c0-.6.2-1.275-.378-1.764a2.59,2.59,0,0,1,1.13-1.132c.662.617.373,1.422.374,2.141q.03,13.772.013,27.545,0,31.79,0,63.58a4.426,4.426,0,0,1-.374,2.57Z" transform="translate(127.013 -74.087)"/>
    <path class="cls-42" d="M254.472,133.757c.584.574.335,1.307.335,1.968q.018,45.978.009,91.956a2.325,2.325,0,0,1-1.13.389,2.943,2.943,0,0,1-.526-2.318q-.017-44.307-.015-88.614c0-.76.161-1.495.2-2.245C253.507,134.3,254.137,134.175,254.472,133.757Z" transform="translate(127.013 -74.087)"/>
    <path class="cls-43" d="M251.033,229.127q.006-43.8.016-87.592a9.3,9.3,0,0,0-.712-3.612,4.057,4.057,0,0,1,1.819-1.628c.691.646.547,1.5.547,2.3q.019,43.909.008,87.817a3.554,3.554,0,0,1-.539,2.337Z" transform="translate(127.013 -74.087)"/>
    <path class="cls-44" d="M270.293,222.809q-.006-52.658-.013-105.316c.245-.361.35-.825.776-1.052.66.662.512,1.518.513,2.315q.019,38.594,0,77.188a3.174,3.174,0,0,1-.527,2.326,56.073,56.073,0,0,0,1.324,6.306,3.787,3.787,0,0,1,.154,1.27c.325,4.614.257,9.234.242,13.854a3.748,3.748,0,0,1-.571,2.685A3.077,3.077,0,0,1,270.293,222.809Z" transform="translate(127.013 -74.087)"/>
    <path class="cls-45" d="M86.511,461.325c2.643-.068,5.287-.118,7.93.018a.254.254,0,0,1,.11.244q-.024.137-.063.137a16.062,16.062,0,0,1-1.628,3.97c-2.2,4.958-4.479,9.881-6.729,14.818-.207.2-.138.547-.37.739l-.008.015c-.216.213-.139.56-.354.773a.545.545,0,0,1-.077.352c-1.357.274-1.138-.832-1.2-1.5a45.773,45.773,0,0,1,.038-5.7c1.243-3.327,2.825-6.506,4.243-9.757a11.643,11.643,0,0,0-4.029-.168c-1.524.055-1.775-.787-1.766-1.978.009-1.122.268-1.956,1.692-1.837A5,5,0,0,0,86.511,461.325Z" transform="translate(127.013 -74.087)"/>
    <path class="cls-46" d="M102,346.523l-1.882,0a3.29,3.29,0,0,1-.61-2.488q-.019-23.414,0-46.828a9.027,9.027,0,0,1,.595-3.495,7.323,7.323,0,0,1,1.888-1.89,3.158,3.158,0,0,1,.613,2.484q.026,24.862,0,49.724A3.326,3.326,0,0,1,102,346.523Z" transform="translate(127.013 -74.087)"/>
    <path class="cls-47" d="M113.314,346.558l-1.508-.013a3.043,3.043,0,0,1-.56-2.312q-.006-30.034-.008-60.068a4.594,4.594,0,0,1,.56-2.532,2.747,2.747,0,0,1,1.133-1.134,2.658,2.658,0,0,1,.943,2.521q.017,30.706.005,61.412A2.861,2.861,0,0,1,113.314,346.558Z" transform="translate(127.013 -74.087)"/>
    <path class="cls-48" d="M63.877,346.486l-9.409,0c-.939-2.231-1.056-4.361.763-6.256A91.443,91.443,0,0,1,62.7,332.58c.264-.143.192-.517.454-.662l.049-.049c.807-.367,1.074.25,1.1.778a78.253,78.253,0,0,1-.105,13.391C64.179,346.23,64,346.344,63.877,346.486Z" transform="translate(127.013 -74.087)"/>
    <path class="cls-49" d="M248.755,139.757c.682.606.389,1.414.39,2.13q.03,14.221.013,28.442,0,26.653-.013,53.305c0,.721.279,1.517-.334,2.156a.655.655,0,0,1-.05-.307,4.814,4.814,0,0,0-.3-.422,7,7,0,0,1-.773-2.29,39.077,39.077,0,0,1-.191-5.444q0-36.81,0-73.62a17.441,17.441,0,0,1,.132-2.817A2.935,2.935,0,0,1,248.755,139.757Z" transform="translate(127.013 -74.087)"/>
    <path class="cls-50" d="M333.353,477.525c0-2.825.028-5.65-.016-8.474-.014-.9.291-1.229,1.188-1.219,2.887.033,5.775.011,8.662.012.535,0,1.008.056,1.015.779.007.7-.413.822-.976.821-2.26,0-4.52.03-6.779-.013-.92-.017-1.372.194-1.323,1.243.08,1.691.069,3.39,0,5.083-.038.96.379,1.169,1.227,1.152,1.882-.039,3.766-.014,5.649-.009a11.732,11.732,0,0,1,1.315.052c.371.043.489.33.5.677.011.408-.062.78-.544.828-.5.05-1,.043-1.5.044-1.883.005-3.766.022-5.649,0-.729-.011-.993.28-.981,1,.029,1.757.045,3.516-.008,5.272-.026.887.257,1.227,1.175,1.2,2.07-.052,4.142-.017,6.214-.015q.565,0,1.129.016c.463.013.652.277.669.719.02.516-.147.858-.724.86q-2.448.006-4.9.009c-1.318,0-2.637.02-3.954-.006-1.347-.026-1.376-.046-1.385-1.365C333.339,483.3,333.353,480.413,333.353,477.525Z" transform="translate(127.013 -74.087)"/>
    <path class="cls-51" d="M94.46,346.538c-1.879-.043-1.895-.043-1.9-1.827q-.007-19.773,0-39.547a9.414,9.414,0,0,0-.388-3.147l2.276-2.569a3.2,3.2,0,0,1,.6,2.484q.026,21.056,0,42.111A3.4,3.4,0,0,1,94.46,346.538Z" transform="translate(127.013 -74.087)"/>
    <path class="cls-52" d="M105.017,346.53l-1.509,0a3.318,3.318,0,0,1-.611-2.491q-.022-25.505-.01-51.01a5.021,5.021,0,0,1,.608-2.715,6.839,6.839,0,0,1,1.464-1.631c.73.614.613,1.467.613,2.27q.013,26.636,0,53.273A2.989,2.989,0,0,1,105.017,346.53Z" transform="translate(127.013 -74.087)"/>
    <path class="cls-53" d="M246.2,218.985l-1.129-3.016a52.56,52.56,0,0,1-.249-7.321q0-30.677-.006-61.354a31.006,31.006,0,0,1,.18-3.751,2.648,2.648,0,0,1,1.12-1.143c.7,0,.772.547.861,1.031a10.417,10.417,0,0,1,.073,1.881q0,35.439-.026,70.879C247.023,217.145,247.53,218.371,246.2,218.985Z" transform="translate(127.013 -74.087)"/>
    <path class="cls-54" d="M103.495,290.31q.007,28.109.013,56.217l-1.509,0q-.005-27.352-.011-54.7A4.748,4.748,0,0,1,103.495,290.31Z" transform="translate(127.013 -74.087)"/>
    <path class="cls-55" d="M245,143.542c.666.614.375,1.418.376,2.134q.025,26.346.013,52.691c0,5.206.009,10.413-.011,15.619,0,.664.235,1.39-.3,1.982l-1.133-3.023c.429-.4.31-.928.31-1.417q0-33.312-.013-66.624c0-.125-.015-.25-.023-.376A2.714,2.714,0,0,1,245,143.542Z" transform="translate(127.013 -74.087)"/>
    <path class="cls-56" d="M100.1,293.711c.343.989-.007,1.98-.005,2.97q.034,24.921.023,49.841H98.607a2.941,2.941,0,0,1-.568-2.306q-.008-23.077-.013-46.154a6.182,6.182,0,0,1,.524-2.556C99.117,294.951,99.328,294.088,100.1,293.711Z" transform="translate(127.013 -74.087)"/>
    <path class="cls-57" d="M115.52,277.712c.02.628.057,1.256.057,1.884q0,33.481,0,66.962h-1.131c-.757-.848-.554-1.892-.555-2.878q-.014-30.3.016-60.6c0-1.231-.452-2.5.154-3.709A5.479,5.479,0,0,1,115.52,277.712Z" transform="translate(127.013 -74.087)"/>
    <path class="cls-58" d="M114.06,279.368a9.406,9.406,0,0,1,.4,2.959q-.023,32.116-.013,64.232h-1.132q0-31.55.013-63.1a9.5,9.5,0,0,0-.4-2.959A2.731,2.731,0,0,1,114.06,279.368Z" transform="translate(127.013 -74.087)"/>
    <path class="cls-59" d="M97.478,346.528l-1.506,0a3.313,3.313,0,0,1-.622-2.49q-.021-21.567-.012-43.134a6.262,6.262,0,0,1,.575-2.736l1.567-1.72a2.875,2.875,0,0,1,.546,2.31q.012,22.725,0,45.449A3.008,3.008,0,0,1,97.478,346.528Z" transform="translate(127.013 -74.087)"/>
    <path class="cls-60" d="M111.8,281.633q0,32.456.009,64.912l-1.131,0a3.027,3.027,0,0,1-.561-2.31q-.006-29.466-.008-58.933a4.581,4.581,0,0,1,.56-2.532A2.744,2.744,0,0,1,111.8,281.633Z" transform="translate(127.013 -74.087)"/>
    <path class="cls-61" d="M95.912,298.173c.015,2.948.042,5.9.044,8.843q.014,19.759.016,39.517l-1.513.006q0-23.546,0-47.091Z" transform="translate(127.013 -74.087)"/>
    <path class="cls-62" d="M110.665,282.766q0,31.888.009,63.775h-1.132a3.028,3.028,0,0,1-.561-2.314q-.006-28.761-.013-57.522a7.065,7.065,0,0,1,.517-2.563A2.335,2.335,0,0,1,110.665,282.766Z" transform="translate(127.013 -74.087)"/>
    <path class="cls-63" d="M253.349,134.893c.6.644.325,1.439.325,2.161q.022,45.508.013,91.016l-.76.332a2.724,2.724,0,0,1-.364-1.985q-.012-44.538-.009-89.075c0-.565.067-1.128.046-1.693Z" transform="translate(127.013 -74.087)"/>
    <path class="cls-64" d="M252.6,135.65c.565.582.321,1.312.321,1.974q.016,45.39.006,90.779l-.757.348q0-45.758.005-91.515c0-.314-.013-.627-.02-.942Z" transform="translate(127.013 -74.087)"/>
    <path class="cls-65" d="M109.485,284.142c.019.879.055,1.758.055,2.637q0,29.881,0,59.762H108.41a3.027,3.027,0,0,1-.561-2.314q-.006-28.195-.013-56.389a7.131,7.131,0,0,1,.516-2.564A3.388,3.388,0,0,1,109.485,284.142Z" transform="translate(127.013 -74.087)"/>
    <path class="cls-66" d="M108.352,285.274c.019.879.056,1.758.056,2.637q.005,29.315,0,58.63l-1.131,0a2.788,2.788,0,0,1-.563-2.125c-.03-18.546.052-37.091-.047-55.637a7.382,7.382,0,0,1,.55-2.371A3.557,3.557,0,0,1,108.352,285.274Z" transform="translate(127.013 -74.087)"/>
    <path class="cls-67" d="M303.488,483.981c1.56-3.756,2.925-7.048,4.294-10.339q.975-2.345,1.964-4.684a2.344,2.344,0,0,1,.4-.834,1.164,1.164,0,0,1,1.4-.144c.435.259.133.652-.007.988q-3.717,8.948-7.44,17.892c-.129.308-.164.807-.678.773-.471-.032-.527-.49-.663-.815q-3.88-9.282-7.744-18.58c1.555-.459,1.589-.473,2.137.82,1.862,4.389,3.7,8.789,5.544,13.183C302.889,482.687,303.1,483.122,303.488,483.981Z" transform="translate(127.013 -74.087)"/>
    <path class="cls-68" d="M107.219,286.4c.019.879.056,1.758.056,2.637q.006,28.748,0,57.5l-1.132,0c-.776-.843-.557-1.892-.557-2.876q-.017-26.1.011-52.19c0-1.177-.366-2.377.112-3.541A5.994,5.994,0,0,1,107.219,286.4Z" transform="translate(127.013 -74.087)"/>
    <path class="cls-69" d="M105.713,287.928a19.017,19.017,0,0,1,.432,5.6q0,26.5,0,53l-1.131,0q0-27.607-.005-55.214c0-.879-.034-1.758-.053-2.637A1.785,1.785,0,0,1,105.713,287.928Z" transform="translate(127.013 -74.087)"/>
    <path class="cls-70" d="M273.25,114.373c.02.816.056,1.632.056,2.448q0,39.2.017,78.408c0,.778-.314,1.65.4,2.319a1.457,1.457,0,0,1-1.166.286,2.96,2.96,0,0,1-.533-2.317q-.016-38.916-.01-77.832a5.592,5.592,0,0,1,.549-2.735Z" transform="translate(127.013 -74.087)"/>
    <path class="cls-71" d="M272.566,114.951q0,41.442-.006,82.884l-.374.064c-.5.037-.65-.313-.708-.7a12.648,12.648,0,0,1-.054-1.881q0-38.338,0-76.676a5.739,5.739,0,0,1,.384-2.949Z" transform="translate(127.013 -74.087)"/>
    <path class="cls-72" d="M271.811,115.692q-.007,40.222-.006,80.444c0,.6-.2,1.274.38,1.762-.3.381-.734.326-1.14.372q0-40.915.01-81.829Z" transform="translate(127.013 -74.087)"/>
    <path class="cls-73" d="M247.624,140.891c.68.607.388,1.414.389,2.13q.028,16.291.013,32.581,0,22.505-.013,45.011c0,.722.275,1.517-.329,2.158a3.892,3.892,0,0,1-.728-1.9c-.054-1.186-.067-2.373-.066-3.561q.009-36.516.008-73.032c0-.878-.06-1.756-.029-2.634A1.487,1.487,0,0,1,247.624,140.891Z" transform="translate(127.013 -74.087)"/>
    <path class="cls-74" d="M215.928,252.135q.012-11.559.027-23.118c0-.877.036-1.753.055-2.63a19.952,19.952,0,0,1,2.973,3.928c.456,5.929.136,11.866.177,17.8a2.93,2.93,0,0,1-.519,1.583A11.853,11.853,0,0,1,215.928,252.135Z" transform="translate(127.013 -74.087)"/>
    <path class="cls-75" d="M218.641,249.7q-.023-8.885-.054-17.771a3.337,3.337,0,0,1,.4-1.611,31.847,31.847,0,0,1,3.388,4.543c.227.19.113.608.473.709l.013-.017a82.167,82.167,0,0,1-.109,10.634l0,0a1.641,1.641,0,0,1-.386.3A27.247,27.247,0,0,1,218.641,249.7Z" transform="translate(127.013 -74.087)"/>
    <path class="cls-76" d="M246.87,141.647c.68.607.388,1.413.389,2.129q.028,17.79.013,35.581,0,19.673-.013,39.346c0,.725.262,1.514-.3,2.17a.427.427,0,0,1-.086-.293c-.183-.236-.11-.575-.321-.8l-.349-.795c.512-.526.308-1.189.308-1.793q.015-36.425,0-72.85c0-.658.249-1.4-.39-1.942A1.481,1.481,0,0,1,246.87,141.647Z" transform="translate(127.013 -74.087)"/>
    <path class="cls-77" d="M500.368,468.057a2.262,2.262,0,0,1,2.85.854c1.75,2.123,3.526,4.224,5.366,6.422,1.7-1.418,2.8-3.247,4.244-4.768a19.939,19.939,0,0,0,1.427-1.738,2.081,2.081,0,0,1,2.585-.844c.1.484-.235.711-.469.99-1.929,2.3-3.811,4.646-5.81,6.885a3.663,3.663,0,0,0-.977,2.711c.042,2.635.016,5.271.01,7.907,0,.5.048,1.026-.707,1.073-.779.049-.957-.35-.953-1.027.016-2.51-.026-5.021.019-7.53a3.983,3.983,0,0,0-1.074-3.042c-1.943-2.113-3.711-4.387-5.543-6.6C501.027,468.977,500.754,468.575,500.368,468.057Z" transform="translate(127.013 -74.087)"/>
    <path class="cls-78" d="M97.478,346.528q0-25.038,0-50.075l1.071-.946c.016.815.048,1.63.048,2.445q.008,24.285.009,48.57Z" transform="translate(127.013 -74.087)"/>
    <path class="cls-79" d="M249.2,483.142l1.513,1.2v-2.054q0-6.114,0-12.229c0-.439.019-.879,0-1.317-.027-.659.328-.887.925-.884.632,0,.878.321.871.942-.018,1.568,0,3.136,0,4.7,0,4.2.007,8.4-.009,12.605,0,.466.222,1.067-.381,1.337a1.347,1.347,0,0,1-1.659-.518c-2.349-2.753-4.875-5.354-7.044-8.259.17-.641.372-1.234,1.239-.812l-.012-.009a1.241,1.241,0,0,0,.392.392l-.014-.014a3.481,3.481,0,0,0,.346.408l.009.019a13.565,13.565,0,0,0,1.2,1.459l-.035-.032a.926.926,0,0,0,.378.424l-.015-.015a1.214,1.214,0,0,0,.393.392l-.015-.015a1.472,1.472,0,0,0,.38.4l-.005-.007A17.745,17.745,0,0,0,249.2,483.142Z" transform="translate(127.013 -74.087)"/>
    <path class="cls-80" d="M202.772,479.294c-2.158-2.1-4.014-4.471-6-6.725a5.03,5.03,0,0,0-1.214-1.174c-.56.264-.289.765-.291,1.139-.021,4.339-.013,8.678-.014,13.017,0,.377-.009.755,0,1.132.006.514-.177.83-.752.854-.679.028-.878-.343-.862-.935,0-.126,0-.252,0-.377q0-8.489.01-16.979c0-.459-.206-1.072.484-1.263a1.235,1.235,0,0,1,1.319.519c2.824,3.346,5.9,6.478,8.514,10A2.023,2.023,0,0,1,202.772,479.294Z" transform="translate(127.013 -74.087)"/>
    <path class="cls-81" d="M81.221,313.336c.543.42.393,1.023.393,1.57q.01,15,0,30c0,1.489-.026,1.489-1.524,1.629a3.7,3.7,0,0,1-.582-2.692c-.016-8.919,0-17.837-.018-26.756,0-.762.166-1.494.226-2.243A4.572,4.572,0,0,1,81.221,313.336Z" transform="translate(127.013 -74.087)"/>
    <path class="cls-82" d="M244.655,477.853c-.617-.041-.787.6-1.239.812-1.875-1.763-3.417-3.826-5.145-5.721a9.849,9.849,0,0,0-1.881-1.881v2.075q0,6.225,0,12.449c0,.44.009.881-.019,1.32-.029.468-.343.62-.771.622-.413,0-.758-.095-.809-.575a8.9,8.9,0,0,1-.029-.941c0-5.533-.009-11.066.012-16.6,0-.507-.281-1.216.486-1.438a1.348,1.348,0,0,1,1.477.574C239.319,471.7,242.183,474.608,244.655,477.853Z" transform="translate(127.013 -74.087)"/>
    <path class="cls-83" d="M79.717,314.84c.53.424.388,1.024.388,1.572q0,15.06-.014,30.12l-1.507-.006a3.383,3.383,0,0,1-.582-2.5c-.016-8.342,0-16.684-.019-25.025,0-.888.241-1.733.278-2.607a2.176,2.176,0,0,1,1.059-1.169,1.279,1.279,0,0,0,.4-.38Z" transform="translate(127.013 -74.087)"/>
    <path class="cls-84" d="M84.159,475.182c.65.418.465,1.084.473,1.675.02,1.476.01,2.952.006,4.428,0,.516.023,1,.684,1.106-.984,2.22-1.989,4.431-2.939,6.665-.255.6-.55.763-1.136.494a14.775,14.775,0,0,1-2.911-1.373C80.2,483.847,82.041,479.455,84.159,475.182Z" transform="translate(127.013 -74.087)"/>
    <path class="cls-85" d="M78.261,316.394c.5.448.332,1.045.333,1.589q.005,14.271-.009,28.542l-1.5.007a3.041,3.041,0,0,1-.551-2.311c-.006-7.961,0-15.923-.015-23.884a23,23,0,0,1,.269-2.418C77.058,317.2,77.86,316.99,78.261,316.394Z" transform="translate(127.013 -74.087)"/>
    <path class="cls-74" d="M202.772,479.294c.247-.487.44-1.055,1.188-.788l-.021.025a.442.442,0,0,0,.411.409l-.034-.031a.449.449,0,0,0,.411.409l-.033-.028a.572.572,0,0,0,.366.445l-.026-.026a1.08,1.08,0,0,0,.372.417l-.009-.009a1.564,1.564,0,0,0,.386.386l-.009-.009q.168.2.34.4l.012.027c.245.161.142.583.5.662l-.042-.037a.441.441,0,0,0,.411.409l-.034-.031a.466.466,0,0,0,.4.42l-.035-.028a.705.705,0,0,0,.348.448l-.014-.014a1.4,1.4,0,0,0,.388.391l-.011-.011a1.875,1.875,0,0,0,.375.394l0,0c.321.3.362,1.063,1.105.678q-.019-7.436-.036-14.873c0-.251.012-.5.029-.752.03-.472.326-.626.755-.625.406,0,.762.074.8.57.029.375.039.752.039,1.127q0,8.1,0,16.192c0,.251.007.5,0,.753-.017.367.042.794-.455.9a1.043,1.043,0,0,1-1.048-.246c-.418-.46-.8-.95-1.2-1.428q-.168-.2-.322-.416l-.031-.048a.623.623,0,0,1-.3-.334l-.074-.074a.484.484,0,0,1-.3-.3l-.073-.073a.359.359,0,0,1-.258-.266.339.339,0,0,1-.168-.3.85.85,0,0,0-.378-.458l.017.017a1.065,1.065,0,0,0-.394-.394l.016.016a2.552,2.552,0,0,0-.346-.413l-.009-.019a.858.858,0,0,1-.288-.372l-.078-.078a.453.453,0,0,1-.3-.3l-.077-.077a.451.451,0,0,1-.3-.3l-.063-.065c-.27-.136-.185-.512-.442-.657l.019.018a1.1,1.1,0,0,0-.394-.394l.017.016a1.1,1.1,0,0,0-.394-.394l.016.016a2.765,2.765,0,0,0-.346-.412l-.01-.02a.848.848,0,0,1-.289-.371Z" transform="translate(127.013 -74.087)"/>
    <path class="cls-86" d="M67.263,346.473l-1.88.006c-.725-.774-.555-1.749-.567-2.666-.058-4.488.074-8.977-.086-13.464a7.992,7.992,0,0,1,1.883-1.877c1.565-.089,1.185,1.149,1.2,1.933.068,3.646.028,7.293.03,10.94,0,1.069.008,2.138,0,3.207A2.375,2.375,0,0,1,67.263,346.473Z" transform="translate(127.013 -74.087)"/>
    <path class="cls-87" d="M187.341,292.246c-.508-.33-.443-.852-.442-1.345q.016-5.24.039-10.48a46.258,46.258,0,0,1,4.5,2.319c.671.335.534.73.281,1.211Q189.528,288.1,187.341,292.246Z" transform="translate(127.013 -74.087)"/>
    <path class="cls-88" d="M222.747,246.184a1.366,1.366,0,0,1-.149-.341,51.54,51.54,0,0,1-.091-9.642c.011-.222.227-.434.349-.651,1.863,2.042,3.35,4.368,5.137,6.676Z" transform="translate(127.013 -74.087)"/>
    <path class="cls-89" d="M76.786,317.919c.466.464.3,1.058.3,1.6q.008,13.506,0,27.011h-1.13a3.085,3.085,0,0,1-.519-2.319c-.011-7.579,0-15.158-.014-22.737,0-.822.192-1.614.244-2.425C75.909,318.546,76.419,318.3,76.786,317.919Z" transform="translate(127.013 -74.087)"/>
    <path class="cls-90" d="M86.511,461.325c-.65.569-1.437.3-2.158.3-.865.009-1.294.318-1.224,1.21.015.186,0,.374,0,.562.011,1.576.019,1.589,1.536,1.63,1.239.033,2.479.052,3.718.085.03,0,.08.088.081.135a.514.514,0,0,1-.063.174q-5.059-.041-10.118-.085c-1.864-.019-1.887-.05-1.907-1.884,0-.312.029-.628,0-.937-.108-1.018.41-1.273,1.333-1.257C80.64,461.313,83.575,461.309,86.511,461.325Z" transform="translate(127.013 -74.087)"/>
    <path class="cls-91" d="M277.525,477.7q0,3.952,0,7.9c0,.439.009.879-.021,1.316-.032.471-.356.606-.779.607s-.763-.085-.809-.568c-.036-.373-.031-.751-.031-1.127q0-8.093,0-16.186,0-.564.03-1.128c.026-.488.352-.6.771-.6.4,0,.768.059.8.56.03.437.035.877.036,1.316Q277.528,473.753,277.525,477.7Z" transform="translate(127.013 -74.087)"/>
    <path class="cls-92" d="M272.2,222.385q-.009-7.483-.012-14.965c0-.539-.179-1.138.341-1.574a1.564,1.564,0,0,1,.046.322c.309.328.016.834.342,1.157l.075.7c.147.252.088.577.288.81l.078.713c.163.242.106.561.28.8.334,1.774.961,3.485,1.147,5.291-.132,2.029.513,4.044.1,6.078-.572.439-1.317.293-1.936.575a.456.456,0,0,0-.415.065Q272.366,222.38,272.2,222.385Z" transform="translate(127.013 -74.087)"/>
    <path class="cls-93" d="M74.448,346.533l-1.128.013a1.952,1.952,0,0,1-.508-1.381c.018-7.717-.17-15.434.1-23.15a3.765,3.765,0,0,1,1.244-1.449c.958.22.8,1.041.8,1.668.05,7.515.034,15.031.019,22.547A2.345,2.345,0,0,1,74.448,346.533Z" transform="translate(127.013 -74.087)"/>
    <path class="cls-3" d="M72.567,346.548l-1.13.015a2.2,2.2,0,0,1-.52-1.57c.037-7.03-.163-14.062.1-21.092a2.843,2.843,0,0,1,1.137-1.133c.861.045.758.728.76,1.251q.045,10.739,0,21.478A1.609,1.609,0,0,1,72.567,346.548Z" transform="translate(127.013 -74.087)"/>
    <path class="cls-94" d="M128.791,456.4c.465-2.682.668-5.345-.522-8.047.085-.2.41-.216.711-.29.862-.211,1.321.044,1.276,1.01-.037.8-.008,1.608-.008,2.368.5.107.743-.142,1.034-.219,2.058-.546,3.08.24,3.12,2.378.043,2.272.043,2.272.652,3.424a7.214,7.214,0,0,1-2.634,0c.9-1.356.516-2.8.5-4.2a.919.919,0,0,0-.992-.926,1.426,1.426,0,0,0-1.445,1,4.16,4.16,0,0,0,.2,3.591,4.451,4.451,0,0,1,.26.587c-1.018-.108-2,.45-2.855-.36C128.268,456.492,128.6,456.586,128.791,456.4Z" transform="translate(127.013 -74.087)"/>
    <path class="cls-95" d="M64.73,330.349c.919.2.651.946.654,1.517.019,3.685.011,7.37.009,11.055,0,1.187-.006,2.373-.01,3.559l-1.506.007c0-4.311.019-8.621-.009-12.931,0-.6.378-1.451-.662-1.685a1.542,1.542,0,0,1,.76-.769.547.547,0,0,1,.317-.31l.064-.062a.516.516,0,0,1,.313-.31Z" transform="translate(127.013 -74.087)"/>
    <path class="cls-96" d="M67.263,346.473c.005-5.5.018-10.995.006-16.492,0-.567.276-1.32-.656-1.509a7.335,7.335,0,0,1,1.438-1.528c.992.159.854.99.86,1.617.056,5.453.046,10.907.014,16.361a1.959,1.959,0,0,1-.524,1.555Z" transform="translate(127.013 -74.087)"/>
    <path class="cls-97" d="M75.663,319.05c.485.534.287,1.191.288,1.795q.015,12.843,0,25.686H75.2a2.826,2.826,0,0,1-.366-1.984q-.014-11.366-.008-22.731a5.169,5.169,0,0,1,.335-2.208Z" transform="translate(127.013 -74.087)"/>
    <path class="cls-98" d="M75.161,319.608q.02,13.462.039,26.923l-.752,0q0-11.994-.01-23.987c0-.662.231-1.382-.285-1.98A2.568,2.568,0,0,1,75.161,319.608Z" transform="translate(127.013 -74.087)"/>
    <path class="cls-99" d="M72.567,346.548q0-10.92-.015-21.839c0-.658.251-1.4-.394-1.94a1.41,1.41,0,0,1,.752-.753c.651.537.4,1.28.4,1.937q.027,11.3.013,22.593Z" transform="translate(127.013 -74.087)"/>
    <path class="cls-100" d="M71.021,323.9c.654.536.4,1.28.4,1.938q.029,10.362.016,20.724l-.756,0A2.211,2.211,0,0,1,70.162,345c.037-6.779-.164-13.56.1-20.338A1.422,1.422,0,0,1,71.021,323.9Z" transform="translate(127.013 -74.087)"/>
    <path class="cls-101" d="M70.267,324.657c.653.537.4,1.281.4,1.938q.029,9.985.016,19.971l-.754.007a2.228,2.228,0,0,1-.52-1.572c.037-6.53-.164-13.061.1-19.589A1.391,1.391,0,0,1,70.267,324.657Z" transform="translate(127.013 -74.087)"/>
    <path class="cls-102" d="M69.511,325.412c.653.537.4,1.281.4,1.939.02,6.407.015,12.815.016,19.222l-.163.053-.172,0-.441-.143c-.532-.652-.348-1.431-.352-2.162-.035-6.05.035-12.1-.044-18.15A1.377,1.377,0,0,1,69.511,325.412Z" transform="translate(127.013 -74.087)"/>
    <path class="cls-103" d="M68.755,326.166c.608.469.4,1.142.4,1.74q.012,9.286-.008,18.572H68.4q.005-8.887,0-17.773c0-.6.206-1.263-.353-1.76A1.082,1.082,0,0,1,68.755,326.166Z" transform="translate(127.013 -74.087)"/>
    <path class="cls-104" d="M55.23,340.226c-1.273,1.961-.646,4.154-.763,6.256l-3.026,0c-.683-.729-.415-1.47-.029-2.212l-.01.011a1.1,1.1,0,0,0,.391-.394l-.015.016a1.252,1.252,0,0,0,.394-.4A12.607,12.607,0,0,1,55.23,340.226Z" transform="translate(127.013 -74.087)"/>
    <path class="cls-105" d="M128.791,456.4a.67.67,0,0,1-.7.327c-.34.153-.672.33-1.024.454-1.464.516-2.256-.038-2.412-1.558-.129-1.256.467-2.613-.511-3.764-.2-.237.018-.464.19-.636.353-.35.721-.685,1.242-1.177.1,1.047,1,1.143,2.179,1.612-2.014.414-2.036,1.576-1.929,2.824.128,1.482.251,1.579,1.871,1.806A3.605,3.605,0,0,0,128.791,456.4Z" transform="translate(127.013 -74.087)"/>
    <path class="cls-106" d="M274.886,221.717c-.046-.042-.12-.077-.132-.127a11.432,11.432,0,0,1,.028-5.95c.4,1.614.752,3.24,1.2,4.838C276.287,221.558,275.787,221.779,274.886,221.717Z" transform="translate(127.013 -74.087)"/>
    <path class="cls-107" d="M51.412,344.267q.014,1.107.029,2.213c-.667-.01-1.392.308-1.942-.349A8.675,8.675,0,0,1,51.412,344.267Z" transform="translate(127.013 -74.087)"/>
    <path class="cls-82" d="M249.2,483.142a2.45,2.45,0,0,1-1.542-1.888A5.435,5.435,0,0,1,249.2,483.142Z" transform="translate(127.013 -74.087)"/>
    <path class="cls-20" d="M182.736,208.06a1.611,1.611,0,0,1-1.407,1.546Z" transform="translate(127.013 -74.087)"/>
    <path class="cls-82" d="M246.579,480.109a1.667,1.667,0,0,1-1.2-1.459C245.836,479.088,246.408,479.433,246.579,480.109Z" transform="translate(127.013 -74.087)"/>
    <path class="cls-37" d="M118.624,274.578a1.555,1.555,0,0,1-1.27,1.344A3.131,3.131,0,0,1,118.624,274.578Z" transform="translate(127.013 -74.087)"/>
    <path class="cls-80" d="M209.517,484.2c-.656.5-.849.377-1.105-.678C208.822,483.682,208.958,484.287,209.517,484.2Z" transform="translate(127.013 -74.087)"/>
    <path class="cls-44" d="M272.912,207.325c-.418-.3-.393-.723-.342-1.157A1.114,1.114,0,0,1,272.912,207.325Z" transform="translate(127.013 -74.087)"/>
    <path class="cls-73" d="M246.55,219.78a.784.784,0,0,1,.321.8A.784.784,0,0,1,246.55,219.78Z" transform="translate(127.013 -74.087)"/>
    <path class="cls-44" d="M273.275,208.836a.726.726,0,0,1-.289-.81A.754.754,0,0,1,273.275,208.836Z" transform="translate(127.013 -74.087)"/>
    <path class="cls-84" d="M85.76,481.25a.794.794,0,0,1,.37-.739A.78.78,0,0,1,85.76,481.25Z" transform="translate(127.013 -74.087)"/>
    <path class="cls-16" d="M189.91,245.745c.3-.338.55-.317.745.1Z" transform="translate(127.013 -74.087)"/>
    <path class="cls-88" d="M222.843,235.567c-.4-.074-.463-.374-.473-.709A.827.827,0,0,1,222.843,235.567Z" transform="translate(127.013 -74.087)"/>
    <path class="cls-80" d="M204.222,480.9a.7.7,0,0,1,.442.657C204.356,481.45,204.277,481.185,204.222,480.9Z" transform="translate(127.013 -74.087)"/>
    <path class="cls-80" d="M206.623,481.586c-.378-.061-.468-.339-.5-.662A1.01,1.01,0,0,1,206.623,481.586Z" transform="translate(127.013 -74.087)"/>
    <path class="cls-84" d="M85.4,482.038a.787.787,0,0,1,.354-.773A.89.89,0,0,1,85.4,482.038Z" transform="translate(127.013 -74.087)"/>
    <path class="cls-44" d="M273.633,210.349a.743.743,0,0,1-.281-.8A.743.743,0,0,1,273.633,210.349Z" transform="translate(127.013 -74.087)"/>
    <path class="cls-95" d="M63.157,331.919a.674.674,0,0,1-.454.662C62.771,332.3,62.832,332.02,63.157,331.919Z" transform="translate(127.013 -74.087)"/>
    <path class="cls-44" d="M272.535,222.358c.115-.168.25-.211.415-.065Z" transform="translate(127.013 -74.087)"/>
    <path class="cls-13" d="M208.421,259.81a.565.565,0,0,1,.395-.4A.5.5,0,0,1,208.421,259.81Z" transform="translate(127.013 -74.087)"/>
    <path class="cls-82" d="M245.035,478.236l-.392-.392A.5.5,0,0,1,245.035,478.236Z" transform="translate(127.013 -74.087)"/>
    <path class="cls-82" d="M245.367,478.63l-.346-.408A.4.4,0,0,1,245.367,478.63Z" transform="translate(127.013 -74.087)"/>
    <path class="cls-80" d="M204.349,478.941a.427.427,0,0,1-.411-.408A.481.481,0,0,1,204.349,478.941Z" transform="translate(127.013 -74.087)"/>
    <path class="cls-90" d="M94.488,461.724l-.047-.381C94.849,461.421,94.666,461.573,94.488,461.724Z" transform="translate(127.013 -74.087)"/>
    <path class="cls-80" d="M204.727,479.318a.428.428,0,0,1-.411-.408A.481.481,0,0,1,204.727,479.318Z" transform="translate(127.013 -74.087)"/>
    <path class="cls-80" d="M202.841,479.364l.289.371Z" transform="translate(127.013 -74.087)"/>
    <path class="cls-80" d="M205.06,479.735a.476.476,0,0,1-.366-.445A.476.476,0,0,1,205.06,479.735Z" transform="translate(127.013 -74.087)"/>
    <path class="cls-80" d="M203.139,479.755l.346.412A.4.4,0,0,1,203.139,479.755Z" transform="translate(127.013 -74.087)"/>
    <path class="cls-80" d="M205.406,480.126a.546.546,0,0,1-.372-.417A.517.517,0,0,1,205.406,480.126Z" transform="translate(127.013 -74.087)"/>
    <path class="cls-80" d="M203.469,480.151l.394.393A.5.5,0,0,1,203.469,480.151Z" transform="translate(127.013 -74.087)"/>
    <path class="cls-80" d="M205.783,480.5l-.386-.386A.481.481,0,0,1,205.783,480.5Z" transform="translate(127.013 -74.087)"/>
    <path class="cls-82" d="M246.922,480.5a.558.558,0,0,1-.378-.423A.536.536,0,0,1,246.922,480.5Z" transform="translate(127.013 -74.087)"/>
    <path class="cls-80" d="M203.846,480.529l.394.394A.5.5,0,0,1,203.846,480.529Z" transform="translate(127.013 -74.087)"/>
    <path class="cls-80" d="M206.115,480.9l-.34-.4A.391.391,0,0,1,206.115,480.9Z" transform="translate(127.013 -74.087)"/>
    <path class="cls-82" d="M247.3,480.877l-.393-.392A.5.5,0,0,1,247.3,480.877Z" transform="translate(127.013 -74.087)"/>
    <path class="cls-82" d="M247.664,481.26l-.38-.4A.469.469,0,0,1,247.664,481.26Z" transform="translate(127.013 -74.087)"/>
    <path class="cls-20" d="M183.109,207.669l-.377.4A.435.435,0,0,1,183.109,207.669Z" transform="translate(127.013 -74.087)"/>
    <path class="cls-80" d="M204.727,481.627l.3.3A.322.322,0,0,1,204.727,481.627Z" transform="translate(127.013 -74.087)"/>
    <path class="cls-80" d="M206.993,481.958a.425.425,0,0,1-.412-.408A.484.484,0,0,1,206.993,481.958Z" transform="translate(127.013 -74.087)"/>
    <path class="cls-80" d="M205.1,482l.3.3A.322.322,0,0,1,205.1,482Z" transform="translate(127.013 -74.087)"/>
    <path class="cls-15" d="M203.833,259.031a.57.57,0,0,1,.406.4A.508.508,0,0,1,203.833,259.031Z" transform="translate(127.013 -74.087)"/>
    <path class="cls-80" d="M205.482,482.383l.288.372Z" transform="translate(127.013 -74.087)"/>
    <path class="cls-80" d="M207.676,482.766a.5.5,0,0,1-.348-.447A.513.513,0,0,1,207.676,482.766Z" transform="translate(127.013 -74.087)"/>
    <path class="cls-80" d="M205.779,482.774l.346.413A.405.405,0,0,1,205.779,482.774Z" transform="translate(127.013 -74.087)"/>
    <path class="cls-80" d="M208.05,483.144l-.388-.391A.5.5,0,0,1,208.05,483.144Z" transform="translate(127.013 -74.087)"/>
    <path class="cls-80" d="M206.109,483.171l.394.394A.5.5,0,0,1,206.109,483.171Z" transform="translate(127.013 -74.087)"/>
    <path class="cls-80" d="M208.414,483.527l-.375-.394A.458.458,0,0,1,208.414,483.527Z" transform="translate(127.013 -74.087)"/>
    <path class="cls-80" d="M206.486,483.547a.557.557,0,0,1,.378.458Z" transform="translate(127.013 -74.087)"/>
    <path class="cls-88" d="M222.357,246.49l.386-.3A.413.413,0,0,1,222.357,246.49Z" transform="translate(127.013 -74.087)"/>
    <path class="cls-80" d="M207.032,484.308l.258.266A.249.249,0,0,1,207.032,484.308Z" transform="translate(127.013 -74.087)"/>
    <path class="cls-80" d="M207.363,484.647l.3.3A.329.329,0,0,1,207.363,484.647Z" transform="translate(127.013 -74.087)"/>
    <path class="cls-80" d="M207.741,485.025l.3.334Z" transform="translate(127.013 -74.087)"/>
    <path class="cls-80" d="M208.074,485.407l.322.416A.445.445,0,0,1,208.074,485.407Z" transform="translate(127.013 -74.087)"/>
    <path class="cls-32" d="M186.883,203.9l-.4.391A.479.479,0,0,1,186.883,203.9Z" transform="translate(127.013 -74.087)"/>
    <path class="cls-32" d="M187.26,203.519l-.39.389A.463.463,0,0,1,187.26,203.519Z" transform="translate(127.013 -74.087)"/>
    <path class="cls-15" d="M204.243,185.788l-.4.389A.487.487,0,0,1,204.243,185.788Z" transform="translate(127.013 -74.087)"/>
    <path class="cls-36" d="M218.583,171.07l-.394.391A.513.513,0,0,1,218.583,171.07Z" transform="translate(127.013 -74.087)"/>
    <path class="cls-36" d="M218.92,170.638a.507.507,0,0,1-.349.446A.514.514,0,0,1,218.92,170.638Z" transform="translate(127.013 -74.087)"/>
    <path class="cls-17" d="M238.962,149.945l-.4.387A.543.543,0,0,1,238.962,149.945Z" transform="translate(127.013 -74.087)"/>
    <path class="cls-39" d="M241.578,147.26a.534.534,0,0,1-.5.4A.676.676,0,0,1,241.578,147.26Z" transform="translate(127.013 -74.087)"/>
    <path class="cls-107" d="M51.793,343.885l-.391.394A.458.458,0,0,1,51.793,343.885Z" transform="translate(127.013 -74.087)"/>
    <path class="cls-107" d="M52.172,343.5a.561.561,0,0,1-.394.4A.48.48,0,0,1,52.172,343.5Z" transform="translate(127.013 -74.087)"/>
    <path class="cls-22" d="M248.457,225.062l.3.421Z" transform="translate(127.013 -74.087)"/>
    <path class="cls-86" d="M64.282,330.791l-.317.31A.32.32,0,0,1,64.282,330.791Z" transform="translate(127.013 -74.087)"/>
    <path class="cls-86" d="M64.66,330.418l-.314.31A.321.321,0,0,1,64.66,330.418Z" transform="translate(127.013 -74.087)"/>
    <path class="cls-81" d="M79.724,314.845l-.4.38Z" transform="translate(127.013 -74.087)"/>
    <path class="cls-20" d="M183.487,207.293l-.39.39A.462.462,0,0,1,183.487,207.293Z" transform="translate(127.013 -74.087)"/>
    <path class="cls-80" d="M207.363,482.346a.437.437,0,0,1-.4-.419A.468.468,0,0,1,207.363,482.346Z" transform="translate(127.013 -74.087)"/>
    <path class="cls-9" d="M449.6,428.765c-.137-.35-.275-.7-.419-1.047-5.4-13.091-10.829-26.172-15.927-39.387-1.055-2.734-1.08-2.682-4.006-2.661a1.652,1.652,0,0,0-1.8,1.231c-1.011,2.632-2.142,5.218-3.2,7.834-2.928,7.27-5.828,14.551-8.765,21.817q-2.4,5.926-4.89,11.812c-.384.9-.39,1.485.555,2,1.04.563,2.013,1.249,3.089,1.929a14.394,14.394,0,0,0,1.343-2.979c1.617-4.144,3.254-8.281,4.793-12.453a1.818,1.818,0,0,1,2.058-1.368c4.712.055,9.425.017,14.138.026,2.237,0,1.737-.151,2.58,1.7.078.17.123.355.193.529,1.919,4.756,3.412,9.675,5.566,14.5,1.464-.86,2.9-1.726,4.366-2.553A.646.646,0,0,0,449.6,428.765Zm-26.724-18.1c2.312-5.541,4.2-11.143,6.937-16.776l6.815,16.776Z" transform="translate(127.013 -74.087)"/>
    <path class="cls-108" d="M119.35,346.572q0-35.211-.007-70.422a3.5,3.5,0,0,1,.79-2.791c.583.573.341,1.306.342,1.969q.017,35.624.007,71.249Z" transform="translate(127.013 -74.087)"/>
    <path class="cls-109" d="M479.663,477.835c.733-.737,1.673-1.035,2.249-1.817,2.278-3.1.585-7.151-3.338-7.932a28.927,28.927,0,0,0-5.637-.231c-1.57,0-1.592.019-1.594,1.516-.01,5.534-.016,11.067.013,16.6,0,.587-.413,1.531.759,1.56,1.312.032.845-1.013.86-1.644.053-2.2.017-4.4.025-6.6,0-.424-.083-.977.553-1,2.185-.068,4.433-.388,5.867,1.95,1.311,2.137,2.736,4.2,4.116,6.3.792,1.2.932,1.234,2.479.574C483.908,484.054,482.1,480.828,479.663,477.835ZM478.4,476.4a15.744,15.744,0,0,1-4.665.334c-.574.012-.746-.315-.739-.834.013-.941,0-1.883,0-2.824h0V472.7c0-3.31,0-3.3,3.252-3.265a6.617,6.617,0,0,1,2.4.379,3.149,3.149,0,0,1,2.249,3.48A3.092,3.092,0,0,1,478.4,476.4Z" transform="translate(127.013 -74.087)"/>
    <path class="cls-77" d="M377.174,476.03a4.961,4.961,0,0,0-3.26-7.933,28.317,28.317,0,0,0-5.815-.242c-1.514,0-1.532.028-1.534,1.583q-.013,8.29,0,16.58c0,.251.009.5,0,.754-.009.568.316.76.831.775.595.017.972-.178.949-.848-.012-.376,0-.754,0-1.13,0-2.073-.009-4.145.009-6.217,0-.4-.162-.882.457-1.073a5.373,5.373,0,0,1,5.852,1.967c1.431,2.053,2.74,4.19,4.11,6.286.769,1.176.885,1.2,2.53.623-2.129-3.122-3.989-6.381-6.457-9.433A7.615,7.615,0,0,0,377.174,476.03Zm-3.222.3a13.931,13.931,0,0,1-5.018.4c-.661-.006-.576-.528-.578-.949-.008-1.752.024-3.5-.016-5.256-.019-.8.266-1.146,1.078-1.081.5.04,1,.007,1.5.007a7.5,7.5,0,0,1,3.131.419,3.237,3.237,0,0,1,2.2,3.347A3.4,3.4,0,0,1,373.952,476.33Z" transform="translate(127.013 -74.087)"/>
    <path class="cls-110" d="M449.283,486.07q-2.7-5.9-5.413-11.8c-.918-1.994-1.825-3.993-2.789-5.964-.422-.863-.959-.848-1.469-.029a8.994,8.994,0,0,0-.516,1q-2.038,4.443-4.068,8.89c-1.276,2.8-2.562,5.586-3.813,8.392-.338.759-.1,1.02.693.993.7-.024.939-.448,1.18-1.012.64-1.5,1.371-2.961,2-4.464a1.783,1.783,0,0,1,1.937-1.352c2.2.1,4.4.1,6.6,0a1.819,1.819,0,0,1,1.956,1.349c.642,1.5,1.381,2.953,2.018,4.452.387.91.945,1.268,2.165.793C449.591,486.868,449.46,486.458,449.283,486.07ZM436.4,479.348l3.906-8.677,4,8.677Z" transform="translate(127.013 -74.087)"/>
    <path class="cls-110" d="M409.413,477.685c-.725-.37-1.505-.63-2.256-.949a13.669,13.669,0,0,1-2.865-1.4,2.8,2.8,0,0,1-1.231-2.208,3.754,3.754,0,0,1,4.451-3.839,14.178,14.178,0,0,1,3.684,1.364c.5-1.943-.027-1.974-1.406-2.513a8.47,8.47,0,0,0-3.9-.424,5.443,5.443,0,0,0-4.688,4.269,4.74,4.74,0,0,0,3.017,5.461c1.2.535,2.448.973,3.643,1.522a4.2,4.2,0,0,1,1.989,1.669,3.4,3.4,0,0,1-.225,3.892,3.884,3.884,0,0,1-3.981,1.563,13.964,13.964,0,0,1-3.909-1.806c-.291,1.891-.272,1.856,1.074,2.586a8,8,0,0,0,4.379.824,5.352,5.352,0,0,0,4.934-4.194A4.978,4.978,0,0,0,409.413,477.685Z" transform="translate(127.013 -74.087)"/>
    <path class="cls-111" d="M171.489,485.941q-1.976-4.367-3.98-8.72c-1.336-2.905-2.693-5.8-4.02-8.711-.193-.423-.349-.812-.9-.8-.47.012-.6.4-.776.719-.061.109-.112.224-.164.339q-2.579,5.644-5.159,11.287c-.991,2.166-1.978,4.334-2.985,6.493-.284.608-.21.963.653,1,.663.077.983-.446,1.252-1.05.688-1.546,1.411-3.076,2.063-4.637a1.585,1.585,0,0,1,1.71-1.114c2.26.054,4.523.064,6.783,0a1.66,1.66,0,0,1,1.843,1.218c.168.47.395.92.6,1.375.5,1.082.979,2.175,1.518,3.237.436.859,1.315,1.282,1.774.855C172.272,486.911,171.7,486.414,171.489,485.941Zm-12.776-6.675,3.895-8.595,3.962,8.595Z" transform="translate(127.013 -74.087)"/>
    <path class="cls-112" d="M355.9,515.351c1.545-2.125,1.548-3.82.009-5.108a4.164,4.164,0,0,0-5.342.144c-1.328,1.344-1.208,3.1.379,5.04-1.829,1.606-2.068,3.644-.68,5.144a4.338,4.338,0,0,0,6.065.155C357.956,519.254,357.769,517.293,355.9,515.351Zm-2.59-4.255a1.774,1.774,0,0,1,1.52,1.653,1.622,1.622,0,0,1-1.52,1.771,1.6,1.6,0,0,1-1.417-1.691A1.746,1.746,0,0,1,353.314,511.1Zm-.05,9.014a1.786,1.786,0,0,1-1.5-2.031c.04-1.166.663-1.772,1.751-1.706a1.686,1.686,0,0,1,1.577,1.764A1.9,1.9,0,0,1,353.264,520.109Z" transform="translate(127.013 -74.087)"/>
    <path class="cls-112" d="M327.54,509.355a3.488,3.488,0,0,0-3.326,2.337,10.15,10.15,0,0,0,.162,8.182,3.356,3.356,0,0,0,3.15,2.023,3.416,3.416,0,0,0,3.131-2.017,8.239,8.239,0,0,0,.863-4.209,8.789,8.789,0,0,0-.691-3.962A3.475,3.475,0,0,0,327.54,509.355Zm1.234,9.324c-.258.605-.588,1.117-1.358,1.072a1.3,1.3,0,0,1-1.193-1.05,10.965,10.965,0,0,1,.049-6.261,1.2,1.2,0,0,1,1.219-.982,1.423,1.423,0,0,1,1.274.951,5.819,5.819,0,0,1,.417,2.946A7.824,7.824,0,0,1,328.774,518.679Z" transform="translate(127.013 -74.087)"/>
    <path class="cls-113" d="M249.366,509.318a4.149,4.149,0,0,0-3.945,4.011,3.589,3.589,0,0,0,3.645,3.7c.243.02.484.047.806.078-.611,1.892-2.216,3.042-3.252,4.889,1.1-.176,1.971.242,2.653-.412,2.421-2.324,4.185-4.971,4-8.519A3.883,3.883,0,0,0,249.366,509.318Zm-.071,5.662a1.638,1.638,0,0,1-1.538-1.923,1.617,1.617,0,0,1,1.7-1.592,1.739,1.739,0,0,1,1.558,1.942A1.585,1.585,0,0,1,249.3,514.98Z" transform="translate(127.013 -74.087)"/>
    <path class="cls-112" d="M265.944,516.462c-.81-.307-.556-.857-.583-1.355-.037-.687-.009-1.378-.009-2.067,0-.814.021-1.63-.008-2.443-.017-.458.224-1.063-.48-1.25a1.3,1.3,0,0,0-1.445.621c-.451.6-.926,1.181-1.389,1.771-1.192,1.518-2.452,2.989-3.554,4.57-.9,1.289-.527,1.923.967,1.95.313.006.628-.016.939,0,.8.052,1.779-.327,2.369.174.626.53.275,1.539.241,2.323-.045,1.031.595.879,1.217.9.687.024,1.177-.007,1.176-.96s-.507-2.088.79-2.768C266.372,517.829,266.522,516.682,265.944,516.462Zm-5.5-.16a17.909,17.909,0,0,1,2.275-2.767c.458.144.324.444.319.65C262.975,516.485,263.6,516.476,260.443,516.3Z" transform="translate(127.013 -74.087)"/>
    <path class="cls-113" d="M316.93,519.5a7.939,7.939,0,0,1-2.232-.12c.06-.657.537-1.013.856-1.449a12.286,12.286,0,0,0,1.751-3.1c.511-1.44.706-2.957-.489-4.225a3.733,3.733,0,0,0-4.283-1.017c-1.707.628-2.227.813-1.587,2.976a13.512,13.512,0,0,1,1.791-.987,1.864,1.864,0,0,1,2.555,2.254,6.418,6.418,0,0,1-1.086,2.574c-.978,1.378-2,2.724-2.989,4.1-.232.322-.705.587-.441,1.029h7.487c.024-.312.057-.5.05-.687C318.259,519.538,318.256,519.548,316.93,519.5Z" transform="translate(127.013 -74.087)"/>
    <path class="cls-114" d="M276.6,514.98c.439-.244.793-.332.971-.558a2.931,2.931,0,0,0-1.291-4.75,4.635,4.635,0,0,0-2.943-.206c-1.519.434-1.536.374-1.349,2.328a9.448,9.448,0,0,1,1.013-.311,5.572,5.572,0,0,1,1.12-.1c1.029.024,1.7.494,1.8,1.3.12.91-.382,1.386-1.216,1.609-.62.166-1.033.413-1.026,1.236.007.866.525.764,1.053.935a1.78,1.78,0,0,1,1.383,2.1,1.933,1.933,0,0,1-2.212,1.324,12.751,12.751,0,0,1-2.068-.661c-.2,2.082-.2,2.08,1.581,2.492.182.042.35.182.529.19,2.485.118,4.9-1.314,4.614-4.132A3.814,3.814,0,0,0,276.6,514.98Z" transform="translate(127.013 -74.087)"/>
    <path class="cls-114" d="M237.807,515.615c0-1.627-.044-3.256.018-4.881.034-.883-.21-1.224-1.144-1.19-.8.029-1.254.085-1.235,1.1q.093,4.974,0,9.951c-.02,1.015.435,1.065,1.234,1.094.93.034,1.181-.3,1.146-1.187C237.762,518.872,237.807,517.242,237.807,515.615Z" transform="translate(127.013 -74.087)"/>
    <path class="cls-114" d="M340.441,509.543c-.818.022-1.244.112-1.226,1.106q.09,4.974,0,9.95c-.02,1.03.46,1.048,1.244,1.083.943.043,1.171-.32,1.137-1.2-.061-1.562-.017-3.129-.017-4.693,0-1.69-.045-3.381.018-5.069C341.628,509.83,341.362,509.518,340.441,509.543Z" transform="translate(127.013 -74.087)"/>
    <path class="cls-115" d="M296.384,516.478c-.932,0-1.865,0-2.8,0a.69.69,0,0,0-.764.627c-.245,1.14.051,1.512,1.27,1.538.311.007.622,0,.932,0,.435,0,.872-.024,1.305.005.618.042.932-.176.866-.837C297.138,517.231,297.392,516.476,296.384,516.478Z" transform="translate(127.013 -74.087)"/>
  </g>
</svg>
